<?xml version="1.0" encoding="utf-8"?>
<!-- Generator: Adobe Illustrator 15.0.0, SVG Export Plug-In . SVG Version: 6.00 Build 0)  -->
<!DOCTYPE svg PUBLIC "-//W3C//DTD SVG 1.1//EN" "http://www.w3.org/Graphics/SVG/1.1/DTD/svg11.dtd">
<svg version="1.1" id="Ebene_1" xmlns="http://www.w3.org/2000/svg" xmlns:xlink="http://www.w3.org/1999/xlink" x="0px" y="0px"
	 width="20px" height="20px" viewBox="0 0 20 20" enable-background="new 0 0 20 20" xml:space="preserve">
<g>
	<circle fill="#E9E9E9" cx="10" cy="10" r="10"/>
</g>
<g id="Neu_laden_-_Orange">
	<path fill="#FA0000" d="M10.039,13.884c-2.117,0-3.84-1.723-3.84-3.84c0-2.119,1.724-3.842,3.84-3.842
		c0.907,0,1.741,0.319,2.399,0.849l-1.905,1.647l5.016,0.74l-0.012-5.069l-1.759,1.523C12.786,5,11.478,4.455,10.039,4.455
		c-3.087,0-5.588,2.502-5.588,5.589c0,3.086,2.5,5.588,5.588,5.588c2.421,0,4.482-1.541,5.256-3.692l-1.783-0.264
		C12.896,12.977,11.572,13.884,10.039,13.884z"/>
</g>
</svg>
